<?xml version="1.0" standalone="no"?>
<!DOCTYPE svg PUBLIC "-//W3C//DTD SVG 20010904//EN"
 "http://www.w3.org/TR/2001/REC-SVG-20010904/DTD/svg10.dtd">
<svg version="1.0" xmlns="http://www.w3.org/2000/svg"
 width="260.000000pt" height="260.000000pt" viewBox="0 0 260.000000 260.000000"
 preserveAspectRatio="xMidYMid meet">
<metadata>
Created by potrace 1.11, written by Peter Selinger 2001-2013
</metadata>
<g transform="translate(0.000000,260.000000) scale(0.100000,-0.100000)"
fill="#000000" stroke="none">
<path d="M1960 2593 c-886 -91 -1515 -570 -1773 -1351 -95 -288 -154 -667
-145 -932 l3 -94 210 -108 210 -107 1043 -1 1042 0 0 1134 0 1134 -97 165 -98
166 -180 -1 c-99 -1 -196 -3 -215 -5z m230 -337 l0 -163 -162 -6 c-765 -25
-1288 -476 -1443 -1241 -14 -68 -25 -135 -25 -150 l0 -26 422 0 c264 0 418 -4
413 -9 -47 -46 -305 -166 -450 -209 -222 -66 -264 -72 -522 -72 l-243 0 6 92
c31 539 179 969 447 1303 325 404 847 637 1440 644 l117 1 0 -164z m-40 -1321
l0 -555 -622 0 -623 0 102 35 c337 114 657 364 921 723 68 92 162 240 194 307
12 25 23 45 25 45 2 0 3 -250 3 -555z"/>
</g>
</svg>
